# xmcd
#
# Track frame offsets: 
#        183
#        12355
#        28513
#        36803
#        48920
#        61153
#        75803
#        85713
#        100045
#        113273
#        127585
#        140370
#        156565
#        176993
#        190463
#        205250
#        218380
#        233138
#        245898
#        259810
#
# Disc length: 3658 seconds
#
# Revision: 7
# Processed by: cddbd v1.5.2PL0 Copyright (c) Steve Scherf et al.
# Submitted via: ExactAudioCopy v1.3
#
DISCID=fc0e4814
DTITLE=Shirley Bassey - Diamonds - The best of Shirley Bassey
DYEAR=1988
DGENRE=Pop
TTITLE0=Diamonds Are Forever
TTITLE1=Something
TTITLE2=Big Spender
TTITLE3=I (Who Have Nothing)
TTITLE4=For All We Know
TTITLE5=Where Do I Begin (Love Story)
TTITLE6=Who Can I Turn To
TTITLE7=Far Away
TTITLE8=Reach For The Stars
TTITLE9=Climb Ev;ry Mountain
TTITLE10=Goldfinger
TTITLE11=Never Never Never
TTITLE12=If You Go Away
TTITLE13=As Long As He Needs Me
TTITLE14=With These Hands
TTITLE15=What Now My Love
TTITLE16=What Kind Of Fool Am I
TTITLE17=I'll Get By (As Long As I Have You)
TTITLE18=You'll Never Know
TTITLE19=This Is My Life
EXTD=YEAR: 1988
EXTT0=
EXTT1=
EXTT2=
EXTT3=
EXTT4=
EXTT5=
EXTT6=
EXTT7=
EXTT8=
EXTT9=
EXTT10=
EXTT11=
EXTT12=
EXTT13=
EXTT14=
EXTT15=
EXTT16=
EXTT17=
EXTT18=
EXTT19=
PLAYORDER=
